 <svg  version="1.0" xmlns="http://www.w3.org/2000/svg"  width="300.000000pt" height="300.000000pt" viewBox="0 0 300.000000 300.000000"  preserveAspectRatio="xMidYMid meet">  <g transform="translate(0.000000,300.000000) scale(0.100000,-0.100000)" fill="#1e3a8a" stroke="none"> <path d="M1493 2380 c-130 -26 -233 -148 -233 -275 0 -42 -1 -42 -40 -48 -47 -6 -95 -38 -115 -76 -8 -16 -51 -201 -95 -412 -66 -309 -81 -395 -77 -442 9 -104 83 -193 184 -223 43 -12 118 -14 455 -12 l403 3 51 27 c87 46 144 139 144 233 0 46 -158 783 -176 822 -21 43 -64 74 -113 80 l-38 5 -6 57 c-15 171 -178 294 -344 261z m141 -46 c69 -24 139 -95 155 -159 30 -122 31 -125 61 -140 16 -8 36 -15 44 -15 26 0 83 -78 90 -123 7 -44 25 -126 56 -262 11 -44 24 -109 30 -145 6 -36 15 -81 20 -100 6 -19 12 -51 16 -70 3 -19 9 -55 14 -80 22 -116 -5 -211 -76 -265 -34 -26 -42 -29 -115 -44 -19 -4 -204 -7 -410 -6 -414 2 -409 1 -483 69 -67 61 -83 141 -56 266 6 25 12 54 15 65 2 11 11 52 20 90 9 39 19 90 24 115 19 102 44 220 62 300 11 47 22 95 24 108 8 33 58 77 105 91 39 12 60 34 60 66 0 42 34 126 65 163 70 81 178 110 279 76z"/> <path d="M1483 2264 c-94 -40 -145 -161 -89 -213 23 -22 30 -22 165 -19 126 3 142 5 156 23 30 39 11 116 -42 169 -48 49 -129 66 -190 40z m144 -44 c37 -22 60 -61 69 -119 l7 -41 -152 0 -151 0 0 33 c0 112 131 186 227 127z"/> <path d="M1395 1938 c-20 -15 -25 -28 -25 -63 0 -59 -15 -95 -39 -95 -26 0 -41 29 -41 80 0 54 -15 80 -45 80 -36 0 -54 -36 -77 -148 -11 -53 -24 -113 -28 -132 -5 -19 -17 -82 -28 -140 -12 -58 -30 -143 -42 -190 -12 -47 -24 -115 -27 -152 -5 -63 -3 -71 22 -104 58 -76 42 -74 486 -74 395 0 397 1 430 23 47 32 79 83 79 126 0 33 -15 111 -66 341 -8 36 -16 76 -19 90 -14 79 -66 308 -74 327 -6 12 -19 27 -31 33 -17 9 -24 6 -46 -15 -20 -20 -24 -32 -20 -64 7 -62 -39 -108 -63 -63 -11 20 -11 21 -11 72 0 31 -6 47 -25 64 -23 22 -33 23 -155 24 -114 0 -133 -2 -155 -20z m-135 -88 c0 -81 19 -110 70 -110 51 0 70 29 70 110 l0 70 150 0 150 0 0 -74 c0 -66 3 -77 22 -90 31 -22 74 -20 98 4 16 16 20 33 20 90 0 71 12 90 30 48 5 -13 43 -186 84 -385 75 -358 76 -363 60 -403 -30 -76 -27 -75 -469 -75 l-390 0 -32 23 c-63 45 -63 55 22 457 41 198 78 370 80 383 3 12 12 22 20 22 12 0 15 -15 15 -70z"/> <path d="M1442 1625 c-53 -23 -64 -65 -60 -222 l3 -133 -32 0 c-27 0 -32 4 -38 30 -7 33 -48 70 -76 70 -16 0 -19 -8 -19 -55 0 -105 41 -141 151 -133 54 4 66 8 90 36 l29 32 0 195 c0 107 -3 195 -7 195 -5 -1 -23 -7 -41 -15z m8 -207 c0 -84 -4 -158 -8 -164 -14 -22 -48 -32 -99 -30 -55 2 -83 18 -83 46 0 30 12 30 37 -1 30 -36 71 -38 100 -6 19 19 22 36 24 147 3 134 6 160 20 160 5 0 9 -69 9 -152z"/> <path d="M1604 1630 c-12 -4 -31 -21 -43 -36 -20 -25 -21 -38 -21 -221 l0 -194 23 6 c36 11 69 51 76 92 6 36 8 38 38 35 44 -5 114 16 142 41 80 73 62 225 -31 267 -45 21 -145 26 -184 10z m174 -50 c52 -32 69 -113 35 -170 -20 -35 -45 -48 -102 -55 -58 -7 -89 -28 -107 -72 -9 -19 -18 -32 -21 -29 -10 9 -11 279 -2 298 19 36 38 45 101 47 48 1 71 -4 96 -19z"/> <path d="M1652 1560 c-46 -19 -58 -121 -19 -158 45 -42 134 -18 157 43 13 35 -3 78 -40 103 -35 23 -61 27 -98 12z m96 -42 c17 -15 15 -68 -5 -90 -10 -12 -30 -18 -57 -18 l-41 0 2 62 c1 35 2 63 2 63 9 4 90 -10 99 -17z"/> </g> </svg> 